<svg width="24" height="24" viewBox="0 0 24 24" fill="none" xmlns="http://www.w3.org/2000/svg">
<path d="M12.7 14.5H5.7C5.51435 14.5 5.3363 14.579 5.20503 14.7197C5.07375 14.8603 5 15.0511 5 15.25C5 15.4489 5.07375 15.6397 5.20503 15.7803C5.3363 15.921 5.51435 16 5.7 16H12.7C12.8857 16 13.0637 15.921 13.195 15.7803C13.3263 15.6397 13.4 15.4489 13.4 15.25C13.4 15.0511 13.3263 14.8603 13.195 14.7197C13.0637 14.579 12.8857 14.5 12.7 14.5ZM5.7 8.5H18.3C18.4857 8.5 18.6637 8.42098 18.795 8.28033C18.9263 8.13968 19 7.94891 19 7.75C19 7.55109 18.9263 7.36032 18.795 7.21967C18.6637 7.07902 18.4857 7 18.3 7H5.7C5.51435 7 5.3363 7.07902 5.20503 7.21967C5.07375 7.36032 5 7.55109 5 7.75C5 7.94891 5.07375 8.13968 5.20503 8.28033C5.3363 8.42098 5.51435 8.5 5.7 8.5ZM18.3 10.75H5.7C5.51435 10.75 5.3363 10.829 5.20503 10.9697C5.07375 11.1103 5 11.3011 5 11.5C5 11.6989 5.07375 11.8897 5.20503 12.0303C5.3363 12.171 5.51435 12.25 5.7 12.25H18.3C18.4857 12.25 18.6637 12.171 18.795 12.0303C18.9263 11.8897 19 11.6989 19 11.5C19 11.3011 18.9263 11.1103 18.795 10.9697C18.6637 10.829 18.4857 10.75 18.3 10.75Z" fill="#8A93A4"/>
</svg>
