<svg width="24" height="24" viewBox="0 0 24 24" fill="none" xmlns="http://www.w3.org/2000/svg">
<path d="M17.3333 7.8H14.6667V7.1C14.6667 6.54305 14.456 6.0089 14.0809 5.61508C13.7058 5.22125 13.1971 5 12.6667 5H11.3333C10.8029 5 10.2942 5.22125 9.91912 5.61508C9.54405 6.0089 9.33333 6.54305 9.33333 7.1V7.8H6.66667C6.48986 7.8 6.32029 7.87375 6.19526 8.00503C6.07024 8.1363 6 8.31435 6 8.5C6 8.68565 6.07024 8.8637 6.19526 8.99497C6.32029 9.12625 6.48986 9.2 6.66667 9.2H7.33333V16.9C7.33333 17.457 7.54405 17.9911 7.91912 18.3849C8.29419 18.7788 8.8029 19 9.33333 19H14.6667C15.1971 19 15.7058 18.7788 16.0809 18.3849C16.456 17.9911 16.6667 17.457 16.6667 16.9V9.2H17.3333C17.5101 9.2 17.6797 9.12625 17.8047 8.99497C17.9298 8.8637 18 8.68565 18 8.5C18 8.31435 17.9298 8.1363 17.8047 8.00503C17.6797 7.87375 17.5101 7.8 17.3333 7.8ZM10.6667 7.1C10.6667 6.91435 10.7369 6.7363 10.8619 6.60503C10.987 6.47375 11.1565 6.4 11.3333 6.4H12.6667C12.8435 6.4 13.013 6.47375 13.1381 6.60503C13.2631 6.7363 13.3333 6.91435 13.3333 7.1V7.8H10.6667V7.1ZM15.3333 16.9C15.3333 17.0857 15.2631 17.2637 15.1381 17.395C15.013 17.5262 14.8435 17.6 14.6667 17.6H9.33333C9.15652 17.6 8.98695 17.5262 8.86193 17.395C8.7369 17.2637 8.66667 17.0857 8.66667 16.9V9.2H15.3333V16.9Z" fill="#8A93A4"/>
<rect x="10" y="11" width="1" height="5" fill="#8A93A4"/>
<rect x="13" y="11" width="1" height="5" fill="#8A93A4"/>
</svg>
