<svg width="16" height="16" viewBox="0 0 16 16" fill="none" xmlns="http://www.w3.org/2000/svg">
<path d="M11.3334 2.00033H14C14.1769 2.00033 14.3464 2.07056 14.4714 2.19559C14.5965 2.32061 14.6667 2.49018 14.6667 2.66699V13.3337C14.6667 13.5105 14.5965 13.68 14.4714 13.8051C14.3464 13.9301 14.1769 14.0003 14 14.0003H2.00004C1.82323 14.0003 1.65366 13.9301 1.52864 13.8051C1.40361 13.68 1.33337 13.5105 1.33337 13.3337V2.66699C1.33337 2.49018 1.40361 2.32061 1.52864 2.19559C1.65366 2.07056 1.82323 2.00033 2.00004 2.00033H4.66671V0.666992H6.00004V2.00033H10V0.666992H11.3334V2.00033ZM10 3.33366H6.00004V4.66699H4.66671V3.33366H2.66671V6.00033H13.3334V3.33366H11.3334V4.66699H10V3.33366ZM13.3334 7.33366H2.66671V12.667H13.3334V7.33366Z" fill="#8A93A4"/>
</svg>
