<svg width="16" height="16" viewBox="0 0 16 16" fill="none" xmlns="http://www.w3.org/2000/svg">
<path fill-rule="evenodd" clip-rule="evenodd" d="M5.98754 4.22507L6.5 5.25H3.5L5 2.25L5.54032 3.33065C6.50859 2.84649 7.60109 2.65761 8.68081 2.7923C9.88405 2.94239 11.004 3.48591 11.8664 4.33832C12.7288 5.19072 13.2853 6.30422 13.4494 7.50564C13.6135 8.70705 13.376 9.92901 12.7738 10.9815C12.1716 12.0339 11.2385 12.8579 10.1196 13.3252C9.00065 13.7925 7.75867 13.8769 6.58682 13.5653C5.41496 13.2538 4.37891 12.5637 3.63981 11.6024C2.90071 10.6411 2.5 9.46257 2.5 8.25H3.5C3.5 9.2421 3.82785 10.2064 4.43257 10.9929C5.03729 11.7794 5.88497 12.344 6.84376 12.5989C7.80255 12.8538 8.81871 12.7848 9.73418 12.4024C10.6497 12.0201 11.4131 11.3459 11.9058 10.4848C12.3985 9.62374 12.5929 8.62395 12.4586 7.64097C12.3243 6.658 11.869 5.74695 11.1634 5.04953C10.4578 4.35211 9.54149 3.90741 8.55702 3.78461C7.67362 3.67441 6.77976 3.82895 5.98754 4.22507Z" fill="black"/>
</svg>
