<svg width="16" height="16" viewBox="0 0 16 16" fill="none" xmlns="http://www.w3.org/2000/svg">
<path fill-rule="evenodd" clip-rule="evenodd" d="M13.3545 2.6465C13.1592 2.45121 12.8426 2.45116 12.6474 2.64639C12.4521 2.84163 12.452 3.15821 12.6473 3.3535C13.8793 4.58596 14.5715 6.25731 14.5715 8C14.5715 9.74269 13.8793 11.414 12.6473 12.6465C12.452 12.8418 12.4521 13.1584 12.6474 13.3536C12.8426 13.5488 13.1592 13.5488 13.3545 13.3535C14.774 11.9335 15.5715 10.0079 15.5715 8C15.5715 5.99214 14.774 4.06649 13.3545 2.6465ZM10.858 5.14296C10.6628 4.94767 10.3462 4.94762 10.1509 5.14286C9.9556 5.33809 9.95555 5.65467 10.1508 5.84996C10.72 6.41931 11.0397 7.19141 11.0397 7.99646C11.0397 8.80152 10.72 9.57362 10.1508 10.143C9.95555 10.3383 9.9556 10.6548 10.1509 10.8501C10.3462 11.0453 10.6628 11.0453 10.858 10.85C11.6146 10.0931 12.0397 9.06668 12.0397 7.99646C12.0397 6.92624 11.6146 5.89984 10.858 5.14296ZM7.79363 3.04932C7.79363 2.85711 7.68346 2.68192 7.51023 2.59866C7.337 2.5154 7.13137 2.53881 6.98129 2.65888L3.58218 5.37817H0.928711C0.652569 5.37817 0.428711 5.60203 0.428711 5.87817V10.1215C0.428711 10.3976 0.652569 10.6215 0.928711 10.6215H3.58218L6.98129 13.3407C7.13137 13.4608 7.337 13.4842 7.51023 13.401C7.68346 13.3177 7.79363 13.1425 7.79363 12.9503V3.04932ZM4.06991 6.26861L6.79363 4.08963V11.91L4.06991 9.73102C3.98126 9.66009 3.8711 9.62145 3.75757 9.62145H1.42871V6.37817H3.75757C3.8711 6.37817 3.98126 6.33953 4.06991 6.26861Z" fill="black"/>
</svg>
